<svg width="44" height="41" viewBox="0 0 44 41" fill="none" xmlns="http://www.w3.org/2000/svg">
<g clip-path="url(#clip0_44_214)">
<path fill-rule="evenodd" clip-rule="evenodd" d="M43.403 20.4112C43.403 31.684 33.7168 40.8224 21.7683 40.8224C9.81975 40.8224 0.133545 31.684 0.133545 20.4112C0.133545 9.1384 9.81975 0 21.7683 0C33.7168 0 43.403 9.1384 43.403 20.4112ZM22.5436 15.0684C20.4393 15.8942 16.2337 17.6033 9.92668 20.1957C8.90253 20.58 8.36603 20.9559 8.31719 21.3234C8.23465 21.9446 9.05916 22.1892 10.1819 22.5223C10.3347 22.5676 10.4929 22.6145 10.6551 22.6643C11.7598 23.003 13.2457 23.3994 14.0182 23.4151C14.7189 23.4294 15.5009 23.1568 16.3644 22.5975C22.2572 18.8446 25.2991 16.9478 25.49 16.9069C25.6248 16.878 25.8115 16.8418 25.938 16.9478C26.0645 17.0539 26.052 17.2548 26.0386 17.3087C25.957 17.6372 22.7204 20.476 21.0456 21.9451C20.5234 22.403 20.153 22.7279 20.0773 22.8021C19.9077 22.9683 19.7349 23.1255 19.5687 23.2766C18.5425 24.2099 17.7729 24.9099 19.6113 26.0528C20.4948 26.6021 21.2018 27.0563 21.907 27.5094C22.6773 28.0043 23.4455 28.4979 24.4395 29.1126C24.6927 29.2692 24.9346 29.4319 25.1702 29.5903C26.0665 30.1932 26.8718 30.7349 27.8667 30.6485C28.4449 30.5983 29.042 30.0854 29.3453 28.5559C30.062 24.941 31.4708 17.1088 31.7964 13.8813C31.8249 13.5985 31.789 13.2366 31.7602 13.0777C31.7314 12.9189 31.6712 12.6925 31.4523 12.525C31.1931 12.3266 30.7929 12.2847 30.614 12.2877C29.8002 12.3012 28.5518 12.7108 22.5436 15.0684Z" fill="#592A20"/>
</g>
<defs>
<clipPath id="clip0_44_214">
<rect width="43.2695" height="40.8224" fill="white" transform="translate(0.133545)"/>
</clipPath>
</defs>
</svg>
