<svg width="45" height="41" viewBox="0 0 45 41" fill="none" xmlns="http://www.w3.org/2000/svg">
<path d="M0.773804 40.8224L3.81529 30.3395C1.93847 27.2711 0.95229 23.7926 0.954093 20.2258C0.959502 9.07448 10.578 0 22.3959 0C28.1309 0.00170093 33.5144 2.10916 37.5637 5.93285C41.6112 9.75655 43.8396 14.8389 43.8378 20.2445C43.8324 31.3975 34.2139 40.472 22.3959 40.472C18.8082 40.4703 15.2727 39.6215 12.1411 38.009L0.773804 40.8224ZM12.6675 34.3469C15.6892 36.0394 18.5738 37.0531 22.3887 37.0548C32.2109 37.0548 40.2122 29.5129 40.2176 20.2411C40.2212 10.9506 32.2578 3.41887 22.4031 3.41547C12.5738 3.41547 4.57791 10.9574 4.57431 20.2275C4.57251 24.0121 5.74799 26.8458 7.72217 29.8105L5.92107 36.0156L12.6675 34.3469ZM33.1971 25.053C33.0637 24.8421 32.7067 24.7163 32.1694 24.4628C31.634 24.2094 28.9999 22.9864 28.5078 22.818C28.0174 22.6496 27.6604 22.5646 27.3016 23.0715C26.9446 23.5766 25.917 24.7163 25.6051 25.053C25.2932 25.3898 24.9795 25.4323 24.444 25.1789C23.9086 24.9255 22.1814 24.3931 20.1351 22.67C18.5431 21.3297 17.4668 19.6747 17.1549 19.1678C16.843 18.6626 17.1225 18.3888 17.3893 18.137C17.6309 17.9108 17.9248 17.5468 18.1934 17.2509C18.4656 16.9583 18.554 16.7474 18.7343 16.4089C18.9127 16.0721 18.8244 15.7762 18.6892 15.5227C18.554 15.271 17.483 12.7825 17.0377 11.7705C16.6014 10.7856 16.1597 10.9183 15.8316 10.903L14.8039 10.886C14.447 10.886 13.8664 11.0118 13.376 11.5187C12.8857 12.0256 11.501 13.2469 11.501 15.7353C11.501 18.2238 13.4211 20.6272 13.6879 20.964C13.9566 21.3008 17.465 26.407 22.8394 28.5961C24.1177 29.1166 25.1165 29.4278 25.8936 29.6609C27.1772 30.0453 28.3455 29.9908 29.2686 29.8616C30.298 29.717 32.4381 28.6386 32.8852 27.4582C33.3323 26.276 33.3323 25.264 33.1971 25.053Z" fill="#592A20"/>
</svg>
