<svg width="45" height="41" viewBox="0 0 45 41" fill="none" xmlns="http://www.w3.org/2000/svg">
<g clip-path="url(#clip0_44_215)">
<path fill-rule="evenodd" clip-rule="evenodd" d="M3.99528 2.86958C0.953674 5.73917 0.953674 10.3577 0.953674 19.5947V21.2276C0.953674 30.4647 0.953674 35.0832 3.99528 37.9528C7.03688 40.8224 11.9322 40.8224 21.723 40.8224H23.4538C33.2446 40.8224 38.1399 40.8224 41.1816 37.9528C44.2232 35.0832 44.2232 30.4647 44.2232 21.2276V19.5947C44.2232 10.3577 44.2232 5.73917 41.1816 2.86958C38.1399 0 33.2446 0 23.4538 0H21.723C11.9322 0 7.03688 0 3.99528 2.86958ZM8.25551 12.4169C8.48989 23.0307 14.1149 29.4092 23.9767 29.4092H24.5357V23.3369C28.1596 23.6771 30.8998 26.1774 31.9995 29.4092H37.1199C35.7136 24.5786 32.0175 21.9081 29.7098 20.8875C32.0175 19.6289 35.2627 16.5672 36.0379 12.4169H31.3864C30.3768 15.7847 27.3843 18.8464 24.5357 19.1356V12.4169H19.8841V24.1874C16.9994 23.507 13.3577 20.2072 13.1954 12.4169H8.25551Z" fill="#592A20"/>
</g>
<defs>
<clipPath id="clip0_44_215">
<rect width="43.2695" height="40.8224" fill="white" transform="translate(0.953674)"/>
</clipPath>
</defs>
</svg>
